# xmcd
#
# Track frame offsets:
# 150
# 21720
# 35602
# 57955
# 74950
# 100147
# 113567
# 128875
# 143855
# 159227
# 170830
# 190952
#
# Disc length: 2707 seconds
#
#
# Revision: 0
# Processed by: cddbd v1.4PL0 Copyright (c) Steve Scherf et al.
# Submitted via: FreeRIP 2.52 
#
DISCID=b50a910c
DTITLE=Baskerville Blues Band - Elementary
DYEAR=1996
DGENRE=Blues
TTITLE0=Howlin' for my baby
TTITLE1=One more mile
TTITLE2=Rollin' home
TTITLE3=Elementary
TTITLE4=Third degree
TTITLE5=You can't judge a book (by its cover)
TTITLE6=Nothin' but the blues
TTITLE7=If I had possession over judgement day
TTITLE8=Get out of my life
TTITLE9=Hey baby
TTITLE10=Nervous
TTITLE11=Down to the chalet
EXTD=
EXTT0=
EXTT1=
EXTT2=
EXTT3=
EXTT4=
EXTT5=
EXTT6=
EXTT7=
EXTT8=
EXTT9=
EXTT10=
EXTT11=
PLAYORDER=
